<?xml version="1.0" standalone="no"?>
<!DOCTYPE svg PUBLIC "-//W3C//DTD SVG 20010904//EN"
 "http://www.w3.org/TR/2001/REC-SVG-20010904/DTD/svg10.dtd">
<svg version="1.0" xmlns="http://www.w3.org/2000/svg"
 width="429.000000pt" height="421.000000pt" viewBox="0 0 429.000000 421.000000"
 preserveAspectRatio="xMidYMid meet">

<g transform="translate(0.000000,421.000000) scale(0.100000,-0.100000)"
fill="#000000" stroke="none">
<path d="M1655 3820 c-88 -10 -182 -26 -210 -35 -82 -28 -157 -71 -207 -118
-12 -12 -26 -15 -44 -11 -20 5 -26 2 -31 -15 -3 -13 -11 -20 -18 -17 -7 2 -21
-2 -32 -9 -10 -8 -14 -15 -9 -15 5 0 -35 -30 -90 -66 -54 -36 -112 -78 -128
-92 -44 -42 -206 -253 -206 -270 0 -15 -62 -82 -76 -82 -8 0 -14 -6 -14 -14 0
-8 -16 -24 -35 -36 -19 -12 -44 -36 -56 -53 -12 -18 -31 -41 -41 -52 -76 -83
-171 -268 -188 -366 -6 -35 -15 -82 -20 -104 -14 -58 -11 -76 6 -35 9 22 12
26 9 10 -2 -14 -5 -31 -5 -37 0 -7 -7 -13 -16 -13 -12 0 -14 -4 -6 -12 8 -12
7 -56 -2 -66 -2 -2 2 -15 9 -29 7 -14 12 -34 10 -44 -2 -11 1 -19 6 -19 5 0 9
-6 8 -12 -3 -28 2 -49 10 -43 12 7 31 -27 31 -55 0 -16 4 -20 16 -16 10 4 39
-6 71 -24 30 -17 59 -28 65 -24 7 5 9 -5 4 -32 -3 -22 -9 -102 -12 -179 -5
-115 -2 -163 15 -269 25 -150 56 -276 78 -320 31 -61 135 -205 195 -271 48
-52 58 -69 47 -76 -8 -5 -17 -9 -21 -9 -3 0 -20 -12 -37 -26 -42 -35 -41 -70
5 -130 20 -26 43 -63 51 -83 8 -20 22 -44 30 -53 15 -16 12 -21 -25 -62 -22
-24 -52 -61 -66 -83 -30 -46 -176 -380 -176 -404 0 -46 -61 -44 1622 -47
l1590 -3 72 35 c197 95 344 276 392 484 18 79 21 236 4 318 -17 86 -100 248
-164 320 -134 150 -343 244 -540 244 l-66 0 11 28 c6 15 17 60 25 101 8 41 17
77 19 79 3 3 26 6 52 7 67 2 100 18 161 78 79 77 111 140 127 250 3 16 14 49
25 74 11 25 20 54 20 65 0 10 4 16 10 13 6 -4 7 1 3 11 -4 12 -2 15 8 12 8 -3
13 -15 11 -28 -6 -38 17 -12 24 28 4 20 10 42 14 47 4 6 4 35 -1 65 -4 30 -8
109 -8 175 -1 99 -4 126 -20 155 -11 19 -24 45 -30 57 -5 11 -24 35 -40 52
-17 18 -31 38 -31 47 0 41 -142 209 -240 282 -19 15 -39 33 -43 39 -4 7 -29
23 -55 34 -26 12 -49 25 -52 28 -3 4 -34 31 -70 60 -36 30 -73 62 -83 72 -10
11 -24 19 -31 19 -12 0 -43 24 -173 130 -7 6 -16 10 -20 10 -4 0 -22 14 -39
31 -46 45 -117 94 -289 200 -202 125 -243 132 -423 68 -46 -16 -87 -29 -90
-29 -4 0 -16 14 -27 30 -13 20 -26 29 -37 26 -10 -2 -20 -1 -23 4 -3 4 -40 25
-82 45 -43 21 -89 46 -102 56 -30 24 -86 23 -306 -1z m61 -767 c82 -38 156
-45 217 -22 58 23 208 37 257 25 38 -9 87 -67 74 -87 -7 -13 13 -83 34 -116 7
-12 11 -26 8 -31 -3 -5 2 -37 10 -72 15 -63 12 -87 -7 -60 -8 11 -9 7 -4 -15
4 -16 7 -34 8 -39 1 -6 -37 -9 -98 -7 -150 4 -229 -18 -338 -93 -55 -37 -123
-119 -161 -193 -9 -18 -20 -33 -25 -33 -4 0 -13 18 -20 39 -18 62 -101 145
-184 186 -74 37 -163 65 -207 65 -49 1 -52 10 -26 91 37 122 94 225 166 302
52 55 73 71 105 77 80 15 131 11 191 -17z m619 -393 c3 -5 1 -10 -4 -10 -6 0
-11 5 -11 10 0 6 2 10 4 10 3 0 8 -4 11 -10z m-22 -140 c25 -7 37 -17 37 -29
0 -9 7 -26 15 -37 16 -21 20 -60 7 -68 -5 -3 -8 -15 -6 -28 1 -13 3 -40 3 -60
1 -30 5 -38 20 -38 11 0 22 6 24 13 3 7 6 5 6 -5 1 -20 31 -88 46 -104 6 -6
15 -9 20 -7 14 4 35 -43 24 -54 -10 -10 31 -78 46 -78 6 0 19 -8 30 -17 11 -9
31 -25 44 -36 23 -18 23 -19 7 -54 -45 -94 -228 -215 -360 -239 -66 -12 -146
-4 -191 18 -16 8 -54 24 -83 35 -79 30 -170 119 -218 214 -36 71 -39 84 -38
153 2 130 60 244 171 337 72 59 110 80 177 94 48 11 165 5 219 -10z m-988 -25
c144 -38 227 -100 264 -198 36 -98 47 -184 32 -264 -40 -224 -174 -323 -435
-323 -93 0 -134 15 -231 85 -101 72 -146 161 -149 296 -1 61 1 67 29 92 56 50
106 47 129 -7 35 -85 132 -101 188 -32 24 29 23 97 -2 129 -24 30 -25 41 -5
57 8 7 15 17 15 22 0 6 -7 5 -15 -2 -11 -9 -15 -9 -15 -1 0 6 11 16 23 20 28
11 57 67 57 110 0 27 3 31 28 31 15 0 55 -7 87 -15z m-629 -406 c3 -6 13 -43
21 -82 21 -107 63 -186 133 -251 79 -72 205 -136 287 -143 l60 -5 -19 -37
c-46 -88 37 -266 162 -349 73 -49 183 -72 345 -72 127 0 201 16 287 62 68 36
182 137 205 181 15 30 14 83 -3 160 l-6 27 58 0 c81 0 145 19 253 75 103 53
189 125 227 191 26 44 39 54 46 33 6 -17 126 -31 144 -17 6 5 22 4 35 -1 13
-5 20 -10 14 -11 -5 -1 6 -7 25 -14 19 -6 68 -12 107 -11 56 0 74 -3 78 -15 5
-13 7 -13 16 0 7 13 10 13 18 1 5 -7 14 -10 20 -7 6 4 28 2 49 -5 20 -7 40
-12 45 -11 4 1 7 -2 7 -8 0 -5 14 -10 31 -10 17 0 28 -4 24 -10 -6 -9 7 -14
31 -11 35 4 20 -172 -27 -314 -51 -152 -183 -372 -293 -488 -66 -69 -201 -139
-316 -163 -100 -21 -522 -15 -650 9 -295 56 -367 45 -600 -93 -73 -44 -91 -50
-139 -50 -30 0 -82 8 -115 17 -51 14 -69 26 -115 75 -30 32 -59 58 -63 58 -4
0 -39 20 -78 45 -45 29 -74 55 -81 73 -5 15 -43 61 -83 102 -81 83 -116 127
-116 144 0 7 15 10 41 8 130 -13 259 133 246 280 -7 76 -45 157 -102 213 -87
88 -185 108 -283 59 -29 -14 -52 -30 -52 -35 0 -5 -4 -9 -9 -9 -15 0 -22 132
-11 215 14 112 20 135 34 135 7 0 21 9 31 20 10 11 21 17 26 14 4 -2 13 5 19
16 12 22 25 26 36 9z m1020 -221 c9 -18 28 -46 41 -62 13 -16 22 -30 21 -32
-2 -1 -37 0 -79 3 l-75 6 30 58 c17 32 34 59 38 59 4 0 15 -15 24 -32z m2004
-158 c0 -5 -5 -10 -11 -10 -5 0 -7 5 -4 10 3 6 8 10 11 10 2 0 4 -4 4 -10z
m-1919 -15 c45 -8 98 -26 126 -43 27 -16 73 -38 103 -49 30 -12 56 -27 58 -35
5 -26 -195 -92 -357 -118 -124 -20 -257 7 -368 76 -40 25 -73 49 -73 53 0 7
17 14 137 61 40 15 87 37 105 49 41 26 154 28 269 6z m-528 -199 c101 -76 250
-126 375 -126 81 0 236 31 349 71 131 46 123 45 123 18 0 -54 -96 -146 -210
-202 l-65 -32 -175 0 c-144 0 -184 3 -228 18 -92 32 -189 147 -209 248 -7 35
-1 36 40 5z m2457 -181 c31 -10 49 -20 40 -23 -17 -6 -168 -130 -188 -155 -13
-15 -17 -15 -50 2 -21 10 -61 26 -89 35 -63 21 -65 31 -28 115 l25 56 118 -7
c64 -3 142 -14 172 -23z m172 -84 c26 -17 74 -57 108 -91 50 -50 59 -64 49
-76 -10 -12 -9 -13 4 -8 11 4 24 -8 46 -42 16 -27 29 -50 27 -51 -1 -1 -31 13
-67 31 -82 44 -176 61 -253 47 -31 -6 -64 -15 -73 -20 -12 -6 -29 1 -65 27
l-48 36 38 39 c44 46 162 137 177 137 6 0 32 -13 57 -29z m-389 -160 c4 -4
-12 -34 -35 -67 -114 -156 -165 -256 -213 -421 -2 -7 -38 22 -79 63 l-76 75 0
65 c0 59 3 67 36 103 19 22 60 54 90 71 74 42 131 95 144 135 l11 33 57 -25
c31 -13 61 -28 65 -32z m-202 26 c-10 -9 -11 -8 -5 6 3 10 9 15 12 12 3 -3 0
-11 -7 -18z m318 -95 l33 -28 -26 -31 c-42 -50 -76 -145 -82 -231 -6 -78 -4
-92 46 -272 33 -122 61 -321 52 -375 -7 -38 -9 -40 -53 -49 -25 -5 -75 -6
-112 -2 -64 7 -66 8 -56 30 8 17 5 37 -14 86 -13 36 -30 97 -36 135 -17 93
-36 173 -52 211 -32 80 76 332 219 512 19 23 37 42 41 42 4 0 22 -13 40 -28z
m340 -34 c20 -7 72 -33 116 -58 105 -59 110 -70 110 -230 0 -110 -4 -135 -28
-205 -15 -44 -46 -110 -70 -147 l-42 -67 -1 112 c-1 208 -59 348 -221 534 -51
58 -53 62 -31 66 48 9 133 6 167 -5z m-75 -251 c81 -130 120 -315 93 -441 -9
-38 -13 -74 -11 -80 8 -20 -116 -104 -199 -135 -32 -11 -59 -21 -60 -21 -1 0
-1 26 1 58 4 72 -30 282 -64 395 -40 130 -46 173 -33 241 13 72 41 142 72 174
l22 24 67 -72 c37 -39 87 -103 112 -143z m-1140 -162 c-51 -47 -394 -211 -565
-270 -90 -31 -177 -65 -194 -74 -16 -10 -84 -41 -150 -70 -66 -29 -139 -64
-162 -77 -34 -20 -55 -24 -120 -24 -76 0 -80 1 -110 32 -66 71 -168 238 -145
238 15 0 30 -17 75 -87 26 -39 68 -95 94 -123 45 -50 49 -52 88 -47 23 2 102
34 176 70 74 36 168 79 209 95 41 17 127 51 190 77 63 26 137 56 164 66 28 10
73 34 101 53 91 60 350 180 367 170 4 -3 -4 -16 -18 -29z m174 -7 c19 -19 14
-70 -19 -201 -17 -67 -35 -150 -39 -184 -5 -37 -17 -74 -30 -93 -21 -29 -24
-30 -101 -30 -69 0 -79 2 -79 18 0 42 51 214 84 285 20 43 36 81 36 84 0 3 16
35 35 70 33 57 39 63 68 63 18 0 38 -5 45 -12z m-1866 -120 c52 -30 65 -52 93
-164 18 -73 19 -153 3 -189 -11 -24 -15 -25 -91 -25 -63 0 -78 3 -74 14 3 7 8
49 12 92 6 68 3 89 -18 153 -27 81 -25 108 7 121 30 12 43 12 68 -2z"/>
<path d="M1911 2284 c-36 -26 -54 -79 -41 -120 25 -76 112 -99 172 -45 28 25
33 36 33 76 0 40 -5 51 -33 76 -38 34 -93 39 -131 13z"/>
<path d="M2815 1733 c-27 -9 -66 -17 -85 -20 -19 -3 -42 -11 -50 -18 -8 -7
-25 -16 -37 -19 -27 -9 -76 -64 -105 -119 -29 -54 -32 -194 -6 -277 21 -66 89
-148 156 -187 40 -24 58 -28 122 -28 94 0 166 32 244 109 68 67 96 133 96 231
0 91 -30 165 -98 237 -87 94 -148 117 -237 91z"/>
<path d="M535 3060 c-3 -6 1 -7 9 -4 18 7 21 14 7 14 -6 0 -13 -4 -16 -10z"/>
</g>
</svg>
